<?xml version="1.0" standalone="no"?>
<!DOCTYPE svg PUBLIC "-//W3C//DTD SVG 1.1//EN"
  "http://www.w3.org/Graphics/SVG/1.1/DTD/svg11.dtd">
<svg xmlns="http://www.w3.org/2000/svg" version="1.1"
     width="891px" height="1475px" viewBox="-15 -751 891 1495">
  <defs>
    <style type="text/css"><![CDATA[
      .markmap-node {
        cursor: pointer;
        preset: colorful; 
      }

      .markmap-node-circle {
        fill: #fff;
        stroke-width: 1.5px;
      }

      .markmap-node-text {
        fill:  #000;
        font: 10px sans-serif;
      }

      .markmap-link {
        fill: none;
      }
    ]]></style>
  </defs>
  <g><path class="markmap-link" stroke="#929292" stroke-width="1" d="M511.642578125,691.25C541.642578125,691.25 541.642578125,653.75 571.642578125,653.75"></path><path class="markmap-link" stroke="#929292" stroke-width="1" d="M511.642578125,691.25C541.642578125,691.25 541.642578125,678.75 571.642578125,678.75"></path><path class="markmap-link" stroke="#929292" stroke-width="1" d="M511.642578125,691.25C541.642578125,691.25 541.642578125,703.75 571.642578125,703.75"></path><path class="markmap-link" stroke="#929292" stroke-width="1" d="M511.642578125,691.25C541.642578125,691.25 541.642578125,728.75 571.642578125,728.75"></path><path class="markmap-link" stroke="#929292" stroke-width="1" d="M532.013671875,598.75C562.013671875,598.75 562.013671875,573.75 592.013671875,573.75"></path><path class="markmap-link" stroke="#929292" stroke-width="1" d="M532.013671875,598.75C562.013671875,598.75 562.013671875,598.75 592.013671875,598.75"></path><path class="markmap-link" stroke="#929292" stroke-width="1" d="M532.013671875,598.75C562.013671875,598.75 562.013671875,623.75 592.013671875,623.75"></path><path class="markmap-link" stroke="#929292" stroke-width="1" d="M519.796875,506.25C549.796875,506.25 549.796875,468.75 579.796875,468.75"></path><path class="markmap-link" stroke="#929292" stroke-width="1" d="M519.796875,506.25C549.796875,506.25 549.796875,493.75 579.796875,493.75"></path><path class="markmap-link" stroke="#929292" stroke-width="1" d="M519.796875,506.25C549.796875,506.25 549.796875,518.75 579.796875,518.75"></path><path class="markmap-link" stroke="#929292" stroke-width="1" d="M519.796875,506.25C549.796875,506.25 549.796875,543.75 579.796875,543.75"></path><path class="markmap-link" stroke="#929292" stroke-width="1" d="M490.3193359375,363.75C520.3193359375,363.75 520.3193359375,288.75 550.3193359375,288.75"></path><path class="markmap-link" stroke="#929292" stroke-width="1" d="M490.3193359375,363.75C520.3193359375,363.75 520.3193359375,313.75 550.3193359375,313.75"></path><path class="markmap-link" stroke="#929292" stroke-width="1" d="M490.3193359375,363.75C520.3193359375,363.75 520.3193359375,338.75 550.3193359375,338.75"></path><path class="markmap-link" stroke="#929292" stroke-width="1" d="M490.3193359375,363.75C520.3193359375,363.75 520.3193359375,363.75 550.3193359375,363.75"></path><path class="markmap-link" stroke="#929292" stroke-width="1" d="M490.3193359375,363.75C520.3193359375,363.75 520.3193359375,388.75 550.3193359375,388.75"></path><path class="markmap-link" stroke="#929292" stroke-width="1" d="M490.3193359375,363.75C520.3193359375,363.75 520.3193359375,413.75 550.3193359375,413.75"></path><path class="markmap-link" stroke="#929292" stroke-width="1" d="M490.3193359375,363.75C520.3193359375,363.75 520.3193359375,438.75 550.3193359375,438.75"></path><path class="markmap-link" stroke="#929292" stroke-width="1" d="M469.7626953125,208.75C499.7626953125,208.75 499.7626953125,158.75 529.7626953125,158.75"></path><path class="markmap-link" stroke="#929292" stroke-width="1" d="M469.7626953125,208.75C499.7626953125,208.75 499.7626953125,183.75 529.7626953125,183.75"></path><path class="markmap-link" stroke="#929292" stroke-width="1" d="M469.7626953125,208.75C499.7626953125,208.75 499.7626953125,208.75 529.7626953125,208.75"></path><path class="markmap-link" stroke="#929292" stroke-width="1" d="M469.7626953125,208.75C499.7626953125,208.75 499.7626953125,233.75 529.7626953125,233.75"></path><path class="markmap-link" stroke="#929292" stroke-width="1" d="M469.7626953125,208.75C499.7626953125,208.75 499.7626953125,258.75 529.7626953125,258.75"></path><path class="markmap-link" stroke="#929292" stroke-width="1" d="M525.34375,91.25C555.34375,91.25 555.34375,53.75 585.34375,53.75"></path><path class="markmap-link" stroke="#929292" stroke-width="1" d="M525.34375,91.25C555.34375,91.25 555.34375,78.75 585.34375,78.75"></path><path class="markmap-link" stroke="#929292" stroke-width="1" d="M525.34375,91.25C555.34375,91.25 555.34375,103.75 585.34375,103.75"></path><path class="markmap-link" stroke="#929292" stroke-width="1" d="M525.34375,91.25C555.34375,91.25 555.34375,128.75 585.34375,128.75"></path><path class="markmap-link" stroke="#929292" stroke-width="1" d="M484.220703125,-63.75C514.220703125,-63.75 514.220703125,-151.25 544.220703125,-151.25"></path><path class="markmap-link" stroke="#929292" stroke-width="1" d="M484.220703125,-63.75C514.220703125,-63.75 514.220703125,-126.25 544.220703125,-126.25"></path><path class="markmap-link" stroke="#929292" stroke-width="1" d="M484.220703125,-63.75C514.220703125,-63.75 514.220703125,-101.25 544.220703125,-101.25"></path><path class="markmap-link" stroke="#929292" stroke-width="1" d="M484.220703125,-63.75C514.220703125,-63.75 514.220703125,-76.25 544.220703125,-76.25"></path><path class="markmap-link" stroke="#929292" stroke-width="1" d="M484.220703125,-63.75C514.220703125,-63.75 514.220703125,-51.25 544.220703125,-51.25"></path><path class="markmap-link" stroke="#929292" stroke-width="1" d="M484.220703125,-63.75C514.220703125,-63.75 514.220703125,-26.25 544.220703125,-26.25"></path><path class="markmap-link" stroke="#929292" stroke-width="1" d="M484.220703125,-63.75C514.220703125,-63.75 514.220703125,-1.25 544.220703125,-1.25"></path><path class="markmap-link" stroke="#929292" stroke-width="1" d="M484.220703125,-63.75C514.220703125,-63.75 514.220703125,23.75 544.220703125,23.75"></path><path class="markmap-link" stroke="#929292" stroke-width="1" d="M476.4228515625,-268.75C506.4228515625,-268.75 506.4228515625,-356.25 536.4228515625,-356.25"></path><path class="markmap-link" stroke="#929292" stroke-width="1" d="M476.4228515625,-268.75C506.4228515625,-268.75 506.4228515625,-331.25 536.4228515625,-331.25"></path><path class="markmap-link" stroke="#929292" stroke-width="1" d="M476.4228515625,-268.75C506.4228515625,-268.75 506.4228515625,-306.25 536.4228515625,-306.25"></path><path class="markmap-link" stroke="#929292" stroke-width="1" d="M476.4228515625,-268.75C506.4228515625,-268.75 506.4228515625,-281.25 536.4228515625,-281.25"></path><path class="markmap-link" stroke="#929292" stroke-width="1" d="M476.4228515625,-268.75C506.4228515625,-268.75 506.4228515625,-256.25 536.4228515625,-256.25"></path><path class="markmap-link" stroke="#929292" stroke-width="1" d="M476.4228515625,-268.75C506.4228515625,-268.75 506.4228515625,-231.25 536.4228515625,-231.25"></path><path class="markmap-link" stroke="#929292" stroke-width="1" d="M476.4228515625,-268.75C506.4228515625,-268.75 506.4228515625,-206.25 536.4228515625,-206.25"></path><path class="markmap-link" stroke="#929292" stroke-width="1" d="M476.4228515625,-268.75C506.4228515625,-268.75 506.4228515625,-181.25 536.4228515625,-181.25"></path><path class="markmap-link" stroke="#929292" stroke-width="1" d="M506.9990234375,-691.25C536.9990234375,-691.25 536.9990234375,-716.25 566.9990234375,-716.25"></path><path class="markmap-link" stroke="#929292" stroke-width="1" d="M506.9990234375,-691.25C536.9990234375,-691.25 536.9990234375,-691.25 566.9990234375,-691.25"></path><path class="markmap-link" stroke="#929292" stroke-width="1" d="M506.9990234375,-691.25C536.9990234375,-691.25 536.9990234375,-666.25 566.9990234375,-666.25"></path><path class="markmap-link" stroke="#929292" stroke-width="1" d="M326.8466796875,0C356.8466796875,0 356.8466796875,-691.25 386.8466796875,-691.25"></path><path class="markmap-link" stroke="#929292" stroke-width="1" d="M326.8466796875,0C356.8466796875,0 356.8466796875,-511.25 386.8466796875,-511.25"></path><path class="markmap-link" stroke="#929292" stroke-width="1" d="M326.8466796875,0C356.8466796875,0 356.8466796875,-268.75 386.8466796875,-268.75"></path><path class="markmap-link" stroke="#929292" stroke-width="1" d="M326.8466796875,0C356.8466796875,0 356.8466796875,-63.75 386.8466796875,-63.75"></path><path class="markmap-link" stroke="#929292" stroke-width="1" d="M326.8466796875,0C356.8466796875,0 356.8466796875,91.25 386.8466796875,91.25"></path><path class="markmap-link" stroke="#929292" stroke-width="1" d="M326.8466796875,0C356.8466796875,0 356.8466796875,208.75 386.8466796875,208.75"></path><path class="markmap-link" stroke="#929292" stroke-width="1" d="M326.8466796875,0C356.8466796875,0 356.8466796875,363.75 386.8466796875,363.75"></path><path class="markmap-link" stroke="#929292" stroke-width="1" d="M326.8466796875,0C356.8466796875,0 356.8466796875,506.25 386.8466796875,506.25"></path><path class="markmap-link" stroke="#929292" stroke-width="1" d="M326.8466796875,0C356.8466796875,0 356.8466796875,598.75 386.8466796875,598.75"></path><path class="markmap-link" stroke="#929292" stroke-width="1" d="M326.8466796875,0C356.8466796875,0 356.8466796875,691.25 386.8466796875,691.25"></path><path class="markmap-link" stroke="#929292" stroke-width="1" d="M266.8466796875,0C296.8466796875,0 296.8466796875,0 326.8466796875,0"></path><path class="markmap-link" stroke="#929292" stroke-width="1" d="M0,0C30,0 30,0 60,0"></path><path class="markmap-link" stroke="#929292" stroke-width="1" d="M583.537109375,-511.25C613.537109375,-511.25 613.537109375,-636.25 643.537109375,-636.25"></path><path class="markmap-link" stroke="#929292" stroke-width="1" d="M583.537109375,-511.25C613.537109375,-511.25 613.537109375,-611.25 643.537109375,-611.25"></path><path class="markmap-link" stroke="#929292" stroke-width="1" d="M583.537109375,-511.25C613.537109375,-511.25 613.537109375,-586.25 643.537109375,-586.25"></path><path class="markmap-link" stroke="#929292" stroke-width="1" d="M583.537109375,-511.25C613.537109375,-511.25 613.537109375,-561.25 643.537109375,-561.25"></path><path class="markmap-link" stroke="#929292" stroke-width="1" d="M583.537109375,-511.25C613.537109375,-511.25 613.537109375,-536.25 643.537109375,-536.25"></path><path class="markmap-link" stroke="#929292" stroke-width="1" d="M583.537109375,-511.25C613.537109375,-511.25 613.537109375,-511.25 643.537109375,-511.25"></path><path class="markmap-link" stroke="#929292" stroke-width="1" d="M583.537109375,-511.25C613.537109375,-511.25 613.537109375,-486.25 643.537109375,-486.25"></path><path class="markmap-link" stroke="#929292" stroke-width="1" d="M583.537109375,-511.25C613.537109375,-511.25 613.537109375,-461.25 643.537109375,-461.25"></path><path class="markmap-link" stroke="#929292" stroke-width="1" d="M583.537109375,-511.25C613.537109375,-511.25 613.537109375,-436.25 643.537109375,-436.25"></path><path class="markmap-link" stroke="#929292" stroke-width="1" d="M583.537109375,-511.25C613.537109375,-511.25 613.537109375,-411.25 643.537109375,-411.25"></path><path class="markmap-link" stroke="#929292" stroke-width="1" d="M583.537109375,-511.25C613.537109375,-511.25 613.537109375,-386.25 643.537109375,-386.25"></path><g class="markmap-node" transform="translate(571.642578125,728.75)"><rect class="markmap-node-rect" y="-10" x="-1" width="137.9140625" height="20" fill="#dfdfdf" rx="10" ry="10" stroke="#929292" stroke-width="1"></rect><circle class="markmap-node-circle" cx="135.9140625" stroke="#929292" r="4.5" style="display: none;"></circle><text class="markmap-node-text" x="10" dy="3" text-anchor="start" style="fill-opacity: 1;">Troubleshoot networking.</text></g><g class="markmap-node" transform="translate(571.642578125,703.75)"><rect class="markmap-node-rect" y="-10" x="-1" width="174.5986328125" height="20" fill="#dfdfdf" rx="10" ry="10" stroke="#929292" stroke-width="1"></rect><circle class="markmap-node-circle" cx="172.5986328125" stroke="#929292" r="4.5" style="display: none;"></circle><text class="markmap-node-text" x="10" dy="3" text-anchor="start" style="fill-opacity: 1;">Troubleshoot worker node failure.</text></g><g class="markmap-node" transform="translate(571.642578125,678.75)"><rect class="markmap-node-rect" y="-10" x="-1" width="176.830078125" height="20" fill="#dfdfdf" rx="10" ry="10" stroke="#929292" stroke-width="1"></rect><circle class="markmap-node-circle" cx="174.830078125" stroke="#929292" r="4.5" style="display: none;"></circle><text class="markmap-node-text" x="10" dy="3" text-anchor="start" style="fill-opacity: 1;">Troubleshoot control plane failure.</text></g><g class="markmap-node" transform="translate(571.642578125,653.75)"><rect class="markmap-node-rect" y="-10" x="-1" width="167.3818359375" height="20" fill="#dfdfdf" rx="10" ry="10" stroke="#929292" stroke-width="1"></rect><circle class="markmap-node-circle" cx="165.3818359375" stroke="#929292" r="4.5" style="display: none;"></circle><text class="markmap-node-text" x="10" dy="3" text-anchor="start" style="fill-opacity: 1;">Troubleshoot application failure.</text></g><g class="markmap-node" transform="translate(386.8466796875,691.25)"><rect class="markmap-node-rect" y="-10" x="-1" width="126.7958984375" height="20" fill="#dfdfdf" rx="10" ry="10" stroke="#929292" stroke-width="1"></rect><circle class="markmap-node-circle" cx="124.7958984375" stroke="#929292" r="4.5"></circle><text class="markmap-node-text" x="10" dy="3" text-anchor="start" style="fill-opacity: 1;">Troubleshooting (10%)</text></g><g class="markmap-node" transform="translate(592.013671875,623.75)"><rect class="markmap-node-rect" y="-10" x="-1" width="226.1123046875" height="20" fill="#dfdfdf" rx="10" ry="10" stroke="#929292" stroke-width="1"></rect><circle class="markmap-node-circle" cx="224.1123046875" stroke="#929292" r="4.5" style="display: none;"></circle><text class="markmap-node-text" x="10" dy="3" text-anchor="start" style="fill-opacity: 1;">Implement backup and restore methodolog…</text></g><g class="markmap-node" transform="translate(592.013671875,598.75)"><rect class="markmap-node-rect" y="-10" x="-1" width="192.1962890625" height="20" fill="#dfdfdf" rx="10" ry="10" stroke="#929292" stroke-width="1"></rect><circle class="markmap-node-circle" cx="190.1962890625" stroke="#929292" r="4.5" style="display: none;"></circle><text class="markmap-node-text" x="10" dy="3" text-anchor="start" style="fill-opacity: 1;">Facilitate operating system upgrades.</text></g><g class="markmap-node" transform="translate(592.013671875,573.75)"><rect class="markmap-node-rect" y="-10" x="-1" width="221.673828125" height="20" fill="#dfdfdf" rx="10" ry="10" stroke="#929292" stroke-width="1"></rect><circle class="markmap-node-circle" cx="219.673828125" stroke="#929292" r="4.5" style="display: none;"></circle><text class="markmap-node-text" x="10" dy="3" text-anchor="start" style="fill-opacity: 1;">Understand Kubernetes cluster upgrade p…</text></g><g class="markmap-node" transform="translate(386.8466796875,598.75)"><rect class="markmap-node-rect" y="-10" x="-1" width="147.1669921875" height="20" fill="#dfdfdf" rx="10" ry="10" stroke="#929292" stroke-width="1"></rect><circle class="markmap-node-circle" cx="145.1669921875" stroke="#929292" r="4.5"></circle><text class="markmap-node-text" x="10" dy="3" text-anchor="start" style="fill-opacity: 1;">Cluster Maintenance (11%)</text></g><g class="markmap-node" transform="translate(579.796875,543.75)"><rect class="markmap-node-rect" y="-10" x="-1" width="136.6298828125" height="20" fill="#dfdfdf" rx="10" ry="10" stroke="#929292" stroke-width="1"></rect><circle class="markmap-node-circle" cx="134.6298828125" stroke="#929292" r="4.5" style="display: none;"></circle><text class="markmap-node-text" x="10" dy="3" text-anchor="start" style="fill-opacity: 1;">Manage application logs.</text></g><g class="markmap-node" transform="translate(579.796875,518.75)"><rect class="markmap-node-rect" y="-10" x="-1" width="170.5263671875" height="20" fill="#dfdfdf" rx="10" ry="10" stroke="#929292" stroke-width="1"></rect><circle class="markmap-node-circle" cx="168.5263671875" stroke="#929292" r="4.5" style="display: none;"></circle><text class="markmap-node-text" x="10" dy="3" text-anchor="start" style="fill-opacity: 1;">Manage cluster component logs.</text></g><g class="markmap-node" transform="translate(579.796875,493.75)"><rect class="markmap-node-rect" y="-10" x="-1" width="204.4326171875" height="20" fill="#dfdfdf" rx="10" ry="10" stroke="#929292" stroke-width="1"></rect><circle class="markmap-node-circle" cx="202.4326171875" stroke="#929292" r="4.5" style="display: none;"></circle><text class="markmap-node-text" x="10" dy="3" text-anchor="start" style="fill-opacity: 1;">Understand how to monitor applications.</text></g><g class="markmap-node" transform="translate(579.796875,468.75)"><rect class="markmap-node-rect" y="-10" x="-1" width="208.8564453125" height="20" fill="#dfdfdf" rx="10" ry="10" stroke="#929292" stroke-width="1"></rect><circle class="markmap-node-circle" cx="206.8564453125" stroke="#929292" r="4.5" style="display: none;"></circle><text class="markmap-node-text" x="10" dy="3" text-anchor="start" style="fill-opacity: 1;">Understand how to monitor all cluster c…</text></g><g class="markmap-node" transform="translate(386.8466796875,506.25)"><rect class="markmap-node-rect" y="-10" x="-1" width="134.9501953125" height="20" fill="#dfdfdf" rx="10" ry="10" stroke="#929292" stroke-width="1"></rect><circle class="markmap-node-circle" cx="132.9501953125" stroke="#929292" r="4.5"></circle><text class="markmap-node-text" x="10" dy="3" text-anchor="start" style="fill-opacity: 1;">Logging/Monitoring (5%)</text></g><g class="markmap-node" transform="translate(550.3193359375,438.75)"><rect class="markmap-node-rect" y="-10" x="-1" width="100.4775390625" height="20" fill="#dfdfdf" rx="10" ry="10" stroke="#929292" stroke-width="1"></rect><circle class="markmap-node-circle" cx="98.4775390625" stroke="#929292" r="4.5" style="display: none;"></circle><text class="markmap-node-text" x="10" dy="3" text-anchor="start" style="fill-opacity: 1;">Understand CNI.</text></g><g class="markmap-node" transform="translate(550.3193359375,413.75)"><rect class="markmap-node-rect" y="-10" x="-1" width="215.5556640625" height="20" fill="#dfdfdf" rx="10" ry="10" stroke="#929292" stroke-width="1"></rect><circle class="markmap-node-circle" cx="213.5556640625" stroke="#929292" r="4.5" style="display: none;"></circle><text class="markmap-node-text" x="10" dy="3" text-anchor="start" style="fill-opacity: 1;">Know how to configure and use the clust…</text></g><g class="markmap-node" transform="translate(550.3193359375,388.75)"><rect class="markmap-node-rect" y="-10" x="-1" width="164.9599609375" height="20" fill="#dfdfdf" rx="10" ry="10" stroke="#929292" stroke-width="1"></rect><circle class="markmap-node-circle" cx="162.9599609375" stroke="#929292" r="4.5" style="display: none;"></circle><text class="markmap-node-text" x="10" dy="3" text-anchor="start" style="fill-opacity: 1;">Know how to use Ingress rules.</text></g><g class="markmap-node" transform="translate(550.3193359375,363.75)"><rect class="markmap-node-rect" y="-10" x="-1" width="217.23046875" height="20" fill="#dfdfdf" rx="10" ry="10" stroke="#929292" stroke-width="1"></rect><circle class="markmap-node-circle" cx="215.23046875" stroke="#929292" r="4.5" style="display: none;"></circle><text class="markmap-node-text" x="10" dy="3" text-anchor="start" style="fill-opacity: 1;">Deploy and configure network load balan…</text></g><g class="markmap-node" transform="translate(550.3193359375,338.75)"><rect class="markmap-node-rect" y="-10" x="-1" width="166.068359375" height="20" fill="#dfdfdf" rx="10" ry="10" stroke="#929292" stroke-width="1"></rect><circle class="markmap-node-circle" cx="164.068359375" stroke="#929292" r="4.5" style="display: none;"></circle><text class="markmap-node-text" x="10" dy="3" text-anchor="start" style="fill-opacity: 1;">Understand service networking.</text></g><g class="markmap-node" transform="translate(550.3193359375,313.75)"><rect class="markmap-node-rect" y="-10" x="-1" width="194.9892578125" height="20" fill="#dfdfdf" rx="10" ry="10" stroke="#929292" stroke-width="1"></rect><circle class="markmap-node-circle" cx="192.9892578125" stroke="#929292" r="4.5" style="display: none;"></circle><text class="markmap-node-text" x="10" dy="3" text-anchor="start" style="fill-opacity: 1;">Understand Pod networking concepts.</text></g><g class="markmap-node" transform="translate(550.3193359375,288.75)"><rect class="markmap-node-rect" y="-10" x="-1" width="215.5556640625" height="20" fill="#dfdfdf" rx="10" ry="10" stroke="#929292" stroke-width="1"></rect><circle class="markmap-node-circle" cx="213.5556640625" stroke="#929292" r="4.5" style="display: none;"></circle><text class="markmap-node-text" x="10" dy="3" text-anchor="start" style="fill-opacity: 1;">Understand the networking configuration…</text></g><g class="markmap-node" transform="translate(386.8466796875,363.75)"><rect class="markmap-node-rect" y="-10" x="-1" width="105.47265625" height="20" fill="#dfdfdf" rx="10" ry="10" stroke="#929292" stroke-width="1"></rect><circle class="markmap-node-circle" cx="103.47265625" stroke="#929292" r="4.5"></circle><text class="markmap-node-text" x="10" dy="3" text-anchor="start" style="fill-opacity: 1;">Networking (11%)</text></g><g class="markmap-node" transform="translate(529.7626953125,258.75)"><rect class="markmap-node-rect" y="-10" x="-1" width="213.32421875" height="20" fill="#dfdfdf" rx="10" ry="10" stroke="#929292" stroke-width="1"></rect><circle class="markmap-node-circle" cx="211.32421875" stroke="#929292" r="4.5" style="display: none;"></circle><text class="markmap-node-text" x="10" dy="3" text-anchor="start" style="fill-opacity: 1;">Know how to configure applications with…</text></g><g class="markmap-node" transform="translate(529.7626953125,233.75)"><rect class="markmap-node-rect" y="-10" x="-1" width="204.9990234375" height="20" fill="#dfdfdf" rx="10" ry="10" stroke="#929292" stroke-width="1"></rect><circle class="markmap-node-circle" cx="202.9990234375" stroke="#929292" r="4.5" style="display: none;"></circle><text class="markmap-node-text" x="10" dy="3" text-anchor="start" style="fill-opacity: 1;">Understand Kubernetes storage objects.</text></g><g class="markmap-node" transform="translate(529.7626953125,208.75)"><rect class="markmap-node-rect" y="-10" x="-1" width="213.8515625" height="20" fill="#dfdfdf" rx="10" ry="10" stroke="#929292" stroke-width="1"></rect><circle class="markmap-node-circle" cx="211.8515625" stroke="#929292" r="4.5" style="display: none;"></circle><text class="markmap-node-text" x="10" dy="3" text-anchor="start" style="fill-opacity: 1;">Understand persistent volume claims pri…</text></g><g class="markmap-node" transform="translate(529.7626953125,183.75)"><rect class="markmap-node-rect" y="-10" x="-1" width="201.634765625" height="20" fill="#dfdfdf" rx="10" ry="10" stroke="#929292" stroke-width="1"></rect><circle class="markmap-node-circle" cx="199.634765625" stroke="#929292" r="4.5" style="display: none;"></circle><text class="markmap-node-text" x="10" dy="3" text-anchor="start" style="fill-opacity: 1;">Understand access modes for volumes.</text></g><g class="markmap-node" transform="translate(529.7626953125,158.75)"><rect class="markmap-node-rect" y="-10" x="-1" width="222.2109375" height="20" fill="#dfdfdf" rx="10" ry="10" stroke="#929292" stroke-width="1"></rect><circle class="markmap-node-circle" cx="220.2109375" stroke="#929292" r="4.5" style="display: none;"></circle><text class="markmap-node-text" x="10" dy="3" text-anchor="start" style="fill-opacity: 1;">Understand persistent volumes and know …</text></g><g class="markmap-node" transform="translate(386.8466796875,208.75)"><rect class="markmap-node-rect" y="-10" x="-1" width="84.916015625" height="20" fill="#dfdfdf" rx="10" ry="10" stroke="#929292" stroke-width="1"></rect><circle class="markmap-node-circle" cx="82.916015625" stroke="#929292" r="4.5"></circle><text class="markmap-node-text" x="10" dy="3" text-anchor="start" style="fill-opacity: 1;">Storage (7%)</text></g><g class="markmap-node" transform="translate(585.34375,128.75)"><rect class="markmap-node-rect" y="-10" x="-1" width="211.634765625" height="20" fill="#dfdfdf" rx="10" ry="10" stroke="#929292" stroke-width="1"></rect><circle class="markmap-node-circle" cx="209.634765625" stroke="#929292" r="4.5" style="display: none;"></circle><text class="markmap-node-text" x="10" dy="3" text-anchor="start" style="fill-opacity: 1;">Understand the primitives necessary to …</text></g><g class="markmap-node" transform="translate(585.34375,103.75)"><rect class="markmap-node-rect" y="-10" x="-1" width="167.748046875" height="20" fill="#dfdfdf" rx="10" ry="10" stroke="#929292" stroke-width="1"></rect><circle class="markmap-node-circle" cx="165.748046875" stroke="#929292" r="4.5" style="display: none;"></circle><text class="markmap-node-text" x="10" dy="3" text-anchor="start" style="fill-opacity: 1;">Know how to scale applications.</text></g><g class="markmap-node" transform="translate(585.34375,78.75)"><rect class="markmap-node-rect" y="-10" x="-1" width="213.87109375" height="20" fill="#dfdfdf" rx="10" ry="10" stroke="#929292" stroke-width="1"></rect><circle class="markmap-node-circle" cx="211.87109375" stroke="#929292" r="4.5" style="display: none;"></circle><text class="markmap-node-text" x="10" dy="3" text-anchor="start" style="fill-opacity: 1;">Know various ways to configure applicat…</text></g><g class="markmap-node" transform="translate(585.34375,53.75)"><rect class="markmap-node-rect" y="-10" x="-1" width="237.787109375" height="20" fill="#dfdfdf" rx="10" ry="10" stroke="#929292" stroke-width="1"></rect><circle class="markmap-node-circle" cx="235.787109375" stroke="#929292" r="4.5" style="display: none;"></circle><text class="markmap-node-text" x="10" dy="3" text-anchor="start" style="fill-opacity: 1;">Management Understand Deployments and h…</text></g><g class="markmap-node" transform="translate(386.8466796875,91.25)"><rect class="markmap-node-rect" y="-10" x="-1" width="140.4970703125" height="20" fill="#dfdfdf" rx="10" ry="10" stroke="#929292" stroke-width="1"></rect><circle class="markmap-node-circle" cx="138.4970703125" stroke="#929292" r="4.5"></circle><text class="markmap-node-text" x="10" dy="3" text-anchor="start" style="fill-opacity: 1;">Application Lifecycle (8%)</text></g><g class="markmap-node" transform="translate(544.220703125,23.75)"><rect class="markmap-node-rect" y="-10" x="-1" width="220.5556640625" height="20" fill="#dfdfdf" rx="10" ry="10" stroke="#929292" stroke-width="1"></rect><circle class="markmap-node-circle" cx="218.5556640625" stroke="#929292" r="4.5" style="display: none;"></circle><text class="markmap-node-text" x="10" dy="3" text-anchor="start" style="fill-opacity: 1;">Know how to configure the Kubernetes sc…</text></g><g class="markmap-node" transform="translate(544.220703125,-1.25)"><rect class="markmap-node-rect" y="-10" x="-1" width="139.9453125" height="20" fill="#dfdfdf" rx="10" ry="10" stroke="#929292" stroke-width="1"></rect><circle class="markmap-node-circle" cx="137.9453125" stroke="#929292" r="4.5" style="display: none;"></circle><text class="markmap-node-text" x="10" dy="3" text-anchor="start" style="fill-opacity: 1;">Display scheduler events.</text></g><g class="markmap-node" transform="translate(544.220703125,-26.25)"><rect class="markmap-node-rect" y="-10" x="-1" width="218.8955078125" height="20" fill="#dfdfdf" rx="10" ry="10" stroke="#929292" stroke-width="1"></rect><circle class="markmap-node-circle" cx="216.8955078125" stroke="#929292" r="4.5" style="display: none;"></circle><text class="markmap-node-text" x="10" dy="3" text-anchor="start" style="fill-opacity: 1;">Manually schedule a pod without a sched…</text></g><g class="markmap-node" transform="translate(544.220703125,-51.25)"><rect class="markmap-node-rect" y="-10" x="-1" width="217.2158203125" height="20" fill="#dfdfdf" rx="10" ry="10" stroke="#929292" stroke-width="1"></rect><circle class="markmap-node-circle" cx="215.2158203125" stroke="#929292" r="4.5" style="display: none;"></circle><text class="markmap-node-text" x="10" dy="3" text-anchor="start" style="fill-opacity: 1;">Understand how to run multiple schedule…</text></g><g class="markmap-node" transform="translate(544.220703125,-76.25)"><rect class="markmap-node-rect" y="-10" x="-1" width="97.162109375" height="20" fill="#dfdfdf" rx="10" ry="10" stroke="#929292" stroke-width="1"></rect><circle class="markmap-node-circle" cx="95.162109375" stroke="#929292" r="4.5" style="display: none;"></circle><text class="markmap-node-text" x="10" dy="3" text-anchor="start" style="fill-opacity: 1;">Pod scheduling.</text></g><g class="markmap-node" transform="translate(544.220703125,-101.25)"><rect class="markmap-node-rect" y="-10" x="-1" width="214.2373046875" height="20" fill="#dfdfdf" rx="10" ry="10" stroke="#929292" stroke-width="1"></rect><circle class="markmap-node-circle" cx="212.2373046875" stroke="#929292" r="4.5" style="display: none;"></circle><text class="markmap-node-text" x="10" dy="3" text-anchor="start" style="fill-opacity: 1;">Understand how resource limits can affe…</text></g><g class="markmap-node" transform="translate(544.220703125,-126.25)"><rect class="markmap-node-rect" y="-10" x="-1" width="188.314453125" height="20" fill="#dfdfdf" rx="10" ry="10" stroke="#929292" stroke-width="1"></rect><circle class="markmap-node-circle" cx="186.314453125" stroke="#929292" r="4.5" style="display: none;"></circle><text class="markmap-node-text" x="10" dy="3" text-anchor="start" style="fill-opacity: 1;">Understand the role of DaemonSets.</text></g><g class="markmap-node" transform="translate(544.220703125,-151.25)"><rect class="markmap-node-rect" y="-10" x="-1" width="192.7578125" height="20" fill="#dfdfdf" rx="10" ry="10" stroke="#929292" stroke-width="1"></rect><circle class="markmap-node-circle" cx="190.7578125" stroke="#929292" r="4.5" style="display: none;"></circle><text class="markmap-node-text" x="10" dy="3" text-anchor="start" style="fill-opacity: 1;">Use label selectors to schedule Pods.</text></g><g class="markmap-node" transform="translate(386.8466796875,-63.75)"><rect class="markmap-node-rect" y="-10" x="-1" width="99.3740234375" height="20" fill="#dfdfdf" rx="10" ry="10" stroke="#929292" stroke-width="1"></rect><circle class="markmap-node-circle" cx="97.3740234375" stroke="#929292" r="4.5"></circle><text class="markmap-node-text" x="10" dy="3" text-anchor="start" style="fill-opacity: 1;">Scheduling (5%)</text></g><g class="markmap-node" transform="translate(536.4228515625,-181.25)"><rect class="markmap-node-rect" y="-10" x="-1" width="189.212890625" height="20" fill="#dfdfdf" rx="10" ry="10" stroke="#929292" stroke-width="1"></rect><circle class="markmap-node-circle" cx="187.212890625" stroke="#929292" r="4.5" style="display: none;"></circle><text class="markmap-node-text" x="10" dy="3" text-anchor="start" style="fill-opacity: 1;">Work with role-based access control.</text></g><g class="markmap-node" transform="translate(536.4228515625,-206.25)"><rect class="markmap-node-rect" y="-10" x="-1" width="176.6298828125" height="20" fill="#dfdfdf" rx="10" ry="10" stroke="#929292" stroke-width="1"></rect><circle class="markmap-node-circle" cx="174.6298828125" stroke="#929292" r="4.5" style="display: none;"></circle><text class="markmap-node-text" x="10" dy="3" text-anchor="start" style="fill-opacity: 1;">Secure persistent key value store.</text></g><g class="markmap-node" transform="translate(536.4228515625,-231.25)"><rect class="markmap-node-rect" y="-10" x="-1" width="134.935546875" height="20" fill="#dfdfdf" rx="10" ry="10" stroke="#929292" stroke-width="1"></rect><circle class="markmap-node-circle" cx="132.935546875" stroke="#929292" r="4.5" style="display: none;"></circle><text class="markmap-node-text" x="10" dy="3" text-anchor="start" style="fill-opacity: 1;">Define security contexts.</text></g><g class="markmap-node" transform="translate(536.4228515625,-256.25)"><rect class="markmap-node-rect" y="-10" x="-1" width="146.7763671875" height="20" fill="#dfdfdf" rx="10" ry="10" stroke="#929292" stroke-width="1"></rect><circle class="markmap-node-circle" cx="144.7763671875" stroke="#929292" r="4.5" style="display: none;"></circle><text class="markmap-node-text" x="10" dy="3" text-anchor="start" style="fill-opacity: 1;">Work with images securely.</text></g><g class="markmap-node" transform="translate(536.4228515625,-281.25)"><rect class="markmap-node-rect" y="-10" x="-1" width="213.3095703125" height="20" fill="#dfdfdf" rx="10" ry="10" stroke="#929292" stroke-width="1"></rect><circle class="markmap-node-circle" cx="211.3095703125" stroke="#929292" r="4.5" style="display: none;"></circle><text class="markmap-node-text" x="10" dy="3" text-anchor="start" style="fill-opacity: 1;">Create and manage TLS certificates for …</text></g><g class="markmap-node" transform="translate(536.4228515625,-306.25)"><rect class="markmap-node-rect" y="-10" x="-1" width="182.748046875" height="20" fill="#dfdfdf" rx="10" ry="10" stroke="#929292" stroke-width="1"></rect><circle class="markmap-node-circle" cx="180.748046875" stroke="#929292" r="4.5" style="display: none;"></circle><text class="markmap-node-text" x="10" dy="3" text-anchor="start" style="fill-opacity: 1;">Know to configure network policies.</text></g><g class="markmap-node" transform="translate(536.4228515625,-331.25)"><rect class="markmap-node-rect" y="-10" x="-1" width="213.2998046875" height="20" fill="#dfdfdf" rx="10" ry="10" stroke="#929292" stroke-width="1"></rect><circle class="markmap-node-circle" cx="211.2998046875" stroke="#929292" r="4.5" style="display: none;"></circle><text class="markmap-node-text" x="10" dy="3" text-anchor="start" style="fill-opacity: 1;">Understand Kubernetes security primitiv…</text></g><g class="markmap-node" transform="translate(536.4228515625,-356.25)"><rect class="markmap-node-rect" y="-10" x="-1" width="216.1220703125" height="20" fill="#dfdfdf" rx="10" ry="10" stroke="#929292" stroke-width="1"></rect><circle class="markmap-node-circle" cx="214.1220703125" stroke="#929292" r="4.5" style="display: none;"></circle><text class="markmap-node-text" x="10" dy="3" text-anchor="start" style="fill-opacity: 1;">Know how to configure authentication an…</text></g><g class="markmap-node" transform="translate(386.8466796875,-268.75)"><rect class="markmap-node-rect" y="-10" x="-1" width="91.576171875" height="20" fill="#dfdfdf" rx="10" ry="10" stroke="#929292" stroke-width="1"></rect><circle class="markmap-node-circle" cx="89.576171875" stroke="#929292" r="4.5"></circle><text class="markmap-node-text" x="10" dy="3" text-anchor="start" style="fill-opacity: 1;">Security (12%)</text></g><g class="markmap-node" transform="translate(386.8466796875,-511.25)"><rect class="markmap-node-rect" y="-10" x="-1" width="198.6904296875" height="20" fill="#dfdfdf" rx="10" ry="10" stroke="#929292" stroke-width="1"></rect><circle class="markmap-node-circle" cx="196.6904296875" stroke="#929292" r="4.5" style=""></circle><text class="markmap-node-text" x="10" dy="3" text-anchor="start" style="fill-opacity: 1;">Installation, Configuration &amp; Validatio…</text></g><g class="markmap-node" transform="translate(566.9990234375,-666.25)"><rect class="markmap-node-rect" y="-10" x="-1" width="219.9892578125" height="20" fill="#dfdfdf" rx="10" ry="10" stroke="#929292" stroke-width="1"></rect><circle class="markmap-node-circle" cx="217.9892578125" stroke="#929292" r="4.5" style="display: none;"></circle><text class="markmap-node-text" x="10" dy="3" text-anchor="start" style="fill-opacity: 1;">Understand Services and other network p…</text></g><g class="markmap-node" transform="translate(566.9990234375,-691.25)"><rect class="markmap-node-rect" y="-10" x="-1" width="214.9892578125" height="20" fill="#dfdfdf" rx="10" ry="10" stroke="#929292" stroke-width="1"></rect><circle class="markmap-node-circle" cx="212.9892578125" stroke="#929292" r="4.5" style="display: none;"></circle><text class="markmap-node-text" x="10" dy="3" text-anchor="start" style="fill-opacity: 1;">Understand the Kubernetes cluster archi…</text></g><g class="markmap-node" transform="translate(566.9990234375,-716.25)"><rect class="markmap-node-rect" y="-10" x="-1" width="217.2060546875" height="20" fill="#dfdfdf" rx="10" ry="10" stroke="#929292" stroke-width="1"></rect><circle class="markmap-node-circle" cx="215.2060546875" stroke="#929292" r="4.5" style="display: none;"></circle><text class="markmap-node-text" x="10" dy="3" text-anchor="start" style="fill-opacity: 1;">Understand the Kubernetes API primitive…</text></g><g class="markmap-node" transform="translate(386.8466796875,-691.25)"><rect class="markmap-node-rect" y="-10" x="-1" width="122.15234375" height="20" fill="#dfdfdf" rx="10" ry="10" stroke="#929292" stroke-width="1"></rect><circle class="markmap-node-circle" cx="120.15234375" stroke="#929292" r="4.5"></circle><text class="markmap-node-text" x="10" dy="3" text-anchor="start" style="fill-opacity: 1;">Core Concepts (19%)</text></g><g class="markmap-node" transform="translate(326.8466796875,0)"><rect class="markmap-node-rect" y="-10" x="-1" width="2" height="20" fill="#dfdfdf" rx="10" ry="10" stroke="#929292" stroke-width="1"></rect><circle class="markmap-node-circle" cx="0" stroke="#929292" r="4.5"></circle><text class="markmap-node-text" x="10" dy="3" text-anchor="start" style="fill-opacity: 1;"></text></g><g class="markmap-node" transform="translate(60,0)"><rect class="markmap-node-rect" y="-10" x="-1" width="208.8466796875" height="20" fill="#dfdfdf" rx="10" ry="10" stroke="#929292" stroke-width="1"></rect><circle class="markmap-node-circle" cx="206.8466796875" stroke="#929292" r="4.5"></circle><text class="markmap-node-text" x="10" dy="3" text-anchor="start" style="fill-opacity: 1;">Certified Kubernetes Administrator (CKA)</text></g><g class="markmap-node" transform="translate(0,0)"><rect class="markmap-node-rect" y="-10" x="-1" width="2" height="20" fill="#dfdfdf" rx="10" ry="10" stroke="#929292" stroke-width="1"></rect><circle class="markmap-node-circle" cx="0" stroke="#929292" r="4.5"></circle><text class="markmap-node-text" x="10" dy="3" text-anchor="start" style="fill-opacity: 1;"></text></g><g class="markmap-node" transform="translate(643.537109375,-386.25)"><rect class="markmap-node-rect" y="-10" x="-1" width="148.8515625" height="20" fill="#dfdfdf" rx="10" ry="10" stroke="#929292" stroke-width="1"></rect><circle class="markmap-node-circle" cx="146.8515625" stroke="#929292" r="4.5" style="display: none;"></circle><text class="markmap-node-text" x="10" dy="3" text-anchor="start" style="fill-opacity: 1;">Run Node end-to-end tests.</text></g><g class="markmap-node" transform="translate(643.537109375,-411.25)"><rect class="markmap-node-rect" y="-10" x="-1" width="171.6298828125" height="20" fill="#dfdfdf" rx="10" ry="10" stroke="#929292" stroke-width="1"></rect><circle class="markmap-node-circle" cx="169.6298828125" stroke="#929292" r="4.5" style="display: none;"></circle><text class="markmap-node-text" x="10" dy="3" text-anchor="start" style="fill-opacity: 1;">Analyse end-to-end tests results.</text></g><g class="markmap-node" transform="translate(643.537109375,-436.25)"><rect class="markmap-node-rect" y="-10" x="-1" width="189.9794921875" height="20" fill="#dfdfdf" rx="10" ry="10" stroke="#929292" stroke-width="1"></rect><circle class="markmap-node-circle" cx="187.9794921875" stroke="#929292" r="4.5" style="display: none;"></circle><text class="markmap-node-text" x="10" dy="3" text-anchor="start" style="fill-opacity: 1;">Run end-to-end tests on your cluster.</text></g><g class="markmap-node" transform="translate(643.537109375,-461.25)"><rect class="markmap-node-rect" y="-10" x="-1" width="215.5361328125" height="20" fill="#dfdfdf" rx="10" ry="10" stroke="#929292" stroke-width="1"></rect><circle class="markmap-node-circle" cx="213.5361328125" stroke="#929292" r="4.5" style="display: none;"></circle><text class="markmap-node-text" x="10" dy="3" text-anchor="start" style="fill-opacity: 1;">Choose your Kubernetes infrastructure c…</text></g><g class="markmap-node" transform="translate(643.537109375,-486.25)"><rect class="markmap-node-rect" y="-10" x="-1" width="146.625" height="20" fill="#dfdfdf" rx="10" ry="10" stroke="#929292" stroke-width="1"></rect><circle class="markmap-node-circle" cx="144.625" stroke="#929292" r="4.5" style="display: none;"></circle><text class="markmap-node-text" x="10" dy="3" text-anchor="start" style="fill-opacity: 1;">Choose a network solution.</text></g><g class="markmap-node" transform="translate(643.537109375,-511.25)"><rect class="markmap-node-rect" y="-10" x="-1" width="201.078125" height="20" fill="#dfdfdf" rx="10" ry="10" stroke="#929292" stroke-width="1"></rect><circle class="markmap-node-circle" cx="199.078125" stroke="#929292" r="4.5" style="display: none;"></circle><text class="markmap-node-text" x="10" dy="3" text-anchor="start" style="fill-opacity: 1;">Provision underlying infrastructure to …</text></g><g class="markmap-node" transform="translate(643.537109375,-536.25)"><rect class="markmap-node-rect" y="-10" x="-1" width="219.447265625" height="20" fill="#dfdfdf" rx="10" ry="10" stroke="#929292" stroke-width="1"></rect><circle class="markmap-node-circle" cx="217.447265625" stroke="#929292" r="4.5" style="display: none;"></circle><text class="markmap-node-text" x="10" dy="3" text-anchor="start" style="fill-opacity: 1;">Know where to get the Kubernetes releas…</text></g><g class="markmap-node" transform="translate(643.537109375,-561.25)"><rect class="markmap-node-rect" y="-10" x="-1" width="215.921875" height="20" fill="#dfdfdf" rx="10" ry="10" stroke="#929292" stroke-width="1"></rect><circle class="markmap-node-circle" cx="213.921875" stroke="#929292" r="4.5" style="display: none;"></circle><text class="markmap-node-text" x="10" dy="3" text-anchor="start" style="fill-opacity: 1;">Configure a Highly-Available Kubernetes…</text></g><g class="markmap-node" transform="translate(643.537109375,-586.25)"><rect class="markmap-node-rect" y="-10" x="-1" width="212.19140625" height="20" fill="#dfdfdf" rx="10" ry="10" stroke="#929292" stroke-width="1"></rect><circle class="markmap-node-circle" cx="210.19140625" stroke="#929292" r="4.5" style="display: none;"></circle><text class="markmap-node-text" x="10" dy="3" text-anchor="start" style="fill-opacity: 1;">Configure secure cluster communications.</text></g><g class="markmap-node" transform="translate(643.537109375,-611.25)"><rect class="markmap-node-rect" y="-10" x="-1" width="211.654296875" height="20" fill="#dfdfdf" rx="10" ry="10" stroke="#929292" stroke-width="1"></rect><circle class="markmap-node-circle" cx="209.654296875" stroke="#929292" r="4.5" style="display: none;"></circle><text class="markmap-node-text" x="10" dy="3" text-anchor="start" style="fill-opacity: 1;">Install Kubernetes masters and nodes, i…</text></g><g class="markmap-node" transform="translate(643.537109375,-636.25)"><rect class="markmap-node-rect" y="-10" x="-1" width="153.8515625" height="20" fill="#dfdfdf" rx="10" ry="10" stroke="#929292" stroke-width="1"></rect><circle class="markmap-node-circle" cx="151.8515625" stroke="#929292" r="4.5" style="display: none;"></circle><text class="markmap-node-text" x="10" dy="3" text-anchor="start" style="fill-opacity: 1;">Design a Kubernetes cluster.</text></g></g>
</svg>
